PathFileType	4	(X/Y/Z)	/Users/itak/Documents/Research/Walk-IL/dataset/trc/00542_00009.trc
DataRate	CameraRate	NumFrames	NumMarkers	Units	OrigDataRate	OrigDataStartFrame	OrigNumFrames
100.000000	100.000000	4	53	mm	100.000000	682	910
Frame#	Time	RPSI			LPSI			L3			STRN			T10			C7			CLAV			RBAK			LBAK			LSHO			LUPA			LAEL			LAOL			LWTS			LWPS			LFRA			LIFD			LHPS			LHTS			RSHO			RUPA			RAEL			RAOL			RWTS			RWPS			RFRA			RIFD			RHTS			RHPS			RBHD			LFHD			RFHD			LBHD			LHIP			RHIP			RASI			LASI			LKNE			LTHI			LANK			LTIP			LTOE			LMT1			LMT5			LHEE			RKNE			RTHI			RANK			RTIP			RTOE			RMT1			RMT5			RHEE			
		X1	Y1	Z1	X2	Y2	Z2	X3	Y3	Z3	X4	Y4	Z4	X5	Y5	Z5	X6	Y6	Z6	X7	Y7	Z7	X8	Y8	Z8	X9	Y9	Z9	X10	Y10	Z10	X11	Y11	Z11	X12	Y12	Z12	X13	Y13	Z13	X14	Y14	Z14	X15	Y15	Z15	X16	Y16	Z16	X17	Y17	Z17	X18	Y18	Z18	X19	Y19	Z19	X20	Y20	Z20	X21	Y21	Z21	X22	Y22	Z22	X23	Y23	Z23	X24	Y24	Z24	X25	Y25	Z25	X26	Y26	Z26	X27	Y27	Z27	X28	Y28	Z28	X29	Y29	Z29	X30	Y30	Z30	X31	Y31	Z31	X32	Y32	Z32	X33	Y33	Z33	X34	Y34	Z34	X35	Y35	Z35	X36	Y36	Z36	X37	Y37	Z37	X38	Y38	Z38	X39	Y39	Z39	X40	Y40	Z40	X41	Y41	Z41	X42	Y42	Z42	X43	Y43	Z43	X44	Y44	Z44	X45	Y45	Z45	X46	Y46	Z46	X47	Y47	Z47	X48	Y48	Z48	X49	Y49	Z49	X50	Y50	Z50	X51	Y51	Z51	X52	Y52	Z52	X53	Y53	Z53	

683	6.82	680.3678588867188	1019.211364746094	339.5010681152344	690.5598754882812	1021.115051269531	206.2227935791016	692.2403564453125	1115.219848632812	268.8363647460938	927.0781860351562	1296.60888671875	269.6840209960938	683.0919799804688	1240.120361328125	265.056884765625	737.6439208984375	1512.749633789062	276.3114318847656	909.9519653320312	1408.243774414062	268.604736328125	664.080322265625	1391.135498046875	365.2969970703125	704.6139526367188	1459.389526367188	183.3553619384766	806.0433349609375	1482.074462890625	104.9633178710938	804.189453125	1358.529541015625	21.55002784729004	843.6410522460938	1141.568969726562	-10.33060932159424	753.6842651367188	1120.677734375	33.81899642944336	975.9705200195312	921.33203125	35.83730316162109	937.4201049804688	890.0648193359375	-35.94266891479492	880.0267333984375	1061.111328125	-17.59775733947754	1011.786193847656	754.920166015625	29.23140907287598	959.447265625	833.822021484375	-28.61811065673828	1008.837951660156	850.3028564453125	15.16213417053223	798.9821166992188	1473.755126953125	432.6814270019531	780.29638671875	1409.322387695312	500.1021118164062	778.1116333007812	1120.24853515625	547.5233764648438	723.1705932617188	1099.969482421875	521.9812622070312	932.67626953125	917.3187866210938	504.8788452148438	891.2432861328125	890.4614868164062	570.0901489257812	792.6328125	1065.8544921875	554.6099853515625	965.6480102539062	747.3410034179688	504.44140625	972.5826416015625	830.1526489257812	518.0260009765625	917.9061279296875	819.6009521484375	567.258544921875	826.1613159179688	1693.470703125	340.2605895996094	984.2886352539062	1704.05224609375	205.6854705810547	966.0202026367188	1705.023681640625	349.0363464355469	853.95703125	1690.030883789062	177.5980529785156	825.677734375	941.857666015625	83.10170745849609	794.1209106445312	948.0809936523438	471.7881774902344	885.2555541992188	976.901611328125	419.9519653320312	902.2395629882812	965.5171508789062	143.9847259521484	870.1997680664062	497.7278137207031	165.5998840332031	864.8565673828125	661.370361328125	122.5994262695312	827.4281005859375	31.04989051818848	202.0803527832031	827.5531616210938	249.9737091064453	176.9349365234375	1036.501708984375	44.26282501220703	265.8244323730469	963.5703735351562	48.73287963867188	296.9596252441406	949.587890625	35.61991882324219	190.9596252441406	758.6435546875	37.97550201416016	254.8520355224609	826.8814086914062	504.9091491699219	460.0059814453125	834.0460205078125	795.56689453125	475.1496276855469	514.5155029296875	132.3665313720703	448.1077575683594	761.583251953125	370.4607543945312	453.176025390625	716.8529052734375	55.81608581542969	430.2576293945312	662.8070068359375	76.03374481201172	381.0485229492188	628.3985595703125	77.45345306396484	479.319091796875	470.8949279785156	151.7609405517578	386.1143798828125	
684	6.83	682.1179809570312	1019.2333984375	338.9009399414062	692.3248291015625	1020.998840332031	205.6343688964844	693.9830932617188	1115.317138671875	268.1730346679688	929.0590209960938	1296.496459960938	269.0437927246094	684.9747924804688	1240.239868164062	264.3592224121094	739.8424072265625	1512.811279296875	275.5411376953125	912.0458374023438	1408.129272460938	267.949951171875	666.16796875	1391.267456054688	364.4774475097656	706.8290405273438	1459.462768554688	182.5661315917969	808.36083984375	1481.962524414062	104.2119598388672	806.3701171875	1358.278198242188	20.9785041809082	845.3027954101562	1141.04248046875	-10.49852466583252	755.1763916015625	1120.754150390625	33.60416030883789	975.1996459960938	919.150146484375	35.71082305908203	936.4796142578125	888.5101318359375	-36.28915023803711	880.8839721679688	1060.148559570312	-17.75078392028809	1008.890197753906	752.2744750976562	28.92243766784668	957.7109375	831.9337158203125	-28.91853332519531	1007.224548339844	847.7257080078125	15.00197410583496	801.0557861328125	1473.765258789062	431.950927734375	782.2599487304688	1409.35595703125	499.3721618652344	779.787353515625	1120.249633789062	546.8553466796875	724.7860107421875	1100.087646484375	521.2841796875	933.9009399414062	916.9635620117188	504.3676147460938	892.389404296875	890.2431640625	569.573486328125	794.1710815429688	1065.885131835938	553.9424438476562	966.4224243164062	746.9083862304688	504.0326232910156	973.603515625	829.701171875	517.5593872070312	918.8980102539062	819.3384399414062	566.7752075195312	828.5115966796875	1693.422973632812	339.577880859375	986.7539672851562	1703.8388671875	205.1022186279297	968.388427734375	1704.835205078125	348.4676818847656	856.4100952148438	1689.974487304688	176.9414672851562	827.4173583984375	941.7675170898438	82.50418090820312	795.873046875	948.2919921875	471.296630859375	886.9657592773438	977.102783203125	419.3666687011719	904.0560913085938	965.37744140625	143.4312591552734	871.3675537109375	497.5697326660156	165.5746459960938	866.3383178710938	661.1676025390625	122.4794006347656	827.542236328125	31.25679588317871	202.1827545166016	828.2283935546875	249.8984680175781	176.9602966308594	1036.615356445312	43.88033676147461	266.0877990722656	963.7015991210938	48.49594116210938	297.0970458984375	949.6526489257812	35.71169281005859	191.0082092285156	758.6631469726562	38.00076675415039	254.9742736816406	830.2479858398438	505.1213684082031	459.36865234375	836.0908813476562	795.8353881835938	474.7871704101562	522.8389892578125	128.3881225585938	448.5778503417969	766.3316040039062	370.0511779785156	452.9196166992188	727.0158081054688	56.71830749511719	431.078857421875	672.5133056640625	75.4075927734375	381.8924560546875	638.0587768554688	76.59974670410156	480.0669555664062	478.7403259277344	146.54248046875	386.4608154296875	
685	6.84	683.7994384765625	1019.258728027344	338.2963256835938	694.0662231445312	1020.899597167969	205.0471038818359	695.6913452148438	1115.436767578125	267.5150756835938	930.99609375	1296.398803710938	268.4381713867188	686.8370361328125	1240.39453125	263.6917114257812	741.9990844726562	1512.884521484375	274.8034973144531	914.094482421875	1408.025024414062	267.3278198242188	668.2008056640625	1391.420532226562	363.6843566894531	708.998779296875	1459.547485351562	181.8126678466797	810.6265869140625	1481.85107421875	103.4869842529297	808.4679565429688	1358.0107421875	20.44514274597168	846.7987670898438	1140.481567382812	-10.61496162414551	756.5379638671875	1120.834594726562	33.47467803955078	974.20166015625	916.9314575195312	35.60994338989258	935.2835083007812	886.9246215820312	-36.5840950012207	881.5511474609375	1059.153442382812	-17.85371971130371	1005.713317871094	749.6104125976562	28.65121269226074	955.70654296875	830.0238647460938	-29.17547988891602	1005.343078613281	845.1124877929688	14.87504482269287	803.0906982421875	1473.783203125	431.2550659179688	784.186279296875	1409.397583007812	498.6780395507812	781.4151000976562	1120.259155273438	546.2130737304688	726.3516845703125	1100.214111328125	520.6026611328125	934.9796752929688	916.519775390625	503.9256896972656	893.3782958984375	889.9703369140625	569.1261596679688	795.6396484375	1065.912719726562	553.3165893554688	966.9561767578125	746.368896484375	503.7372741699219	974.4315795898438	829.143310546875	517.1901245117188	919.6764526367188	819.015869140625	566.3673095703125	830.841552734375	1693.388916015625	338.9356384277344	989.18701171875	1703.628784179688	204.5441589355469	970.730224609375	1704.656494140625	347.925048828125	858.8300170898438	1689.927856445312	176.3136901855469	829.1251220703125	941.6882934570312	81.96537017822266	797.5659790039062	948.500732421875	470.7882080078125	888.6021728515625	977.3240966796875	418.8348999023438	905.8406372070312	965.2489013671875	142.9364624023438	872.5556030273438	497.4395446777344	165.5381011962891	867.8280639648438	660.99560546875	122.4060211181641	827.648681640625	31.43506813049316	202.2868499755859	828.893798828125	249.8374938964844	176.9700317382812	1036.693237304688	43.56720733642578	266.3323059082031	963.8148193359375	48.29138946533203	297.2233581542969	949.7119750976562	35.80185699462891	191.0732116699219	758.6546630859375	37.99392700195312	255.0772552490234	833.5720825195312	505.353515625	458.7070922851562	838.0364379882812	796.1156616210938	474.4681091308594	531.3977661132812	124.3830947875977	449.0757141113281	771.1088256835938	369.6548767089844	452.6591186523438	737.2648315429688	57.50182723999023	431.9079284667969	682.3756713867188	74.70642852783203	382.8085632324219	647.8716430664062	75.65045166015625	480.8990478515625	486.8429565429688	141.2674560546875	386.8281555175781	
686	6.850000000000001	685.4116821289062	1019.288391113281	337.687255859375	695.7808837890625	1020.823425292969	204.4566955566406	697.3705444335938	1115.580200195312	266.8507385253906	932.8887939453125	1296.317993164062	267.8702392578125	688.6663818359375	1240.583984375	263.046142578125	744.1131591796875	1512.971557617188	274.0982360839844	916.0983276367188	1407.935791015625	266.7406005859375	670.1741333007812	1391.596313476562	362.9197082519531	711.1235961914062	1459.646728515625	181.0953216552734	812.8416748046875	1481.742919921875	102.7879028320312	810.4839477539062	1357.73046875	19.95090675354004	848.1299438476562	1139.890502929688	-10.67781543731689	757.775390625	1120.918090820312	33.42530059814453	972.991455078125	914.6913452148438	35.53057098388672	933.8392944335938	885.314697265625	-36.82144165039062	882.0375366210938	1058.1337890625	-17.90696907043457	1002.282348632812	746.9515380859375	28.41407203674316	953.4558715820312	828.1080932617188	-29.39432716369629	1003.203308105469	842.4776611328125	14.78429317474365	805.0848388671875	1473.813354492188	430.5972290039062	786.0740966796875	1409.451293945312	498.0209350585938	782.9894409179688	1120.282348632812	545.5933227539062	727.8637084960938	1100.353271484375	519.9303588867188	935.9171142578125	915.9989013671875	503.5589294433594	894.211669921875	889.6503295898438	568.749267578125	797.0343627929688	1065.939331054688	552.728759765625	967.2688598632812	745.7369384765625	503.5557250976562	975.0672607421875	828.4907836914062	516.9307250976562	920.2448120117188	818.633056640625	566.0447998046875	833.1495361328125	1693.377319335938	338.3329467773438	991.5869750976562	1703.42333984375	204.0135803222656	973.0437622070312	1704.488891601562	347.408447265625	861.22021484375	1689.893798828125	175.7117462158203	830.7991943359375	941.623046875	81.48491668701172	799.198974609375	948.708251953125	470.2705383300781	890.1676025390625	977.56982421875	418.3568115234375	907.5917358398438	965.1342163085938	142.5000152587891	873.7599487304688	497.3375854492188	165.489013671875	869.33740234375	660.8587036132812	122.3626022338867	827.7332153320312	31.5726146697998	202.3987884521484	829.5460815429688	249.7854156494141	176.9740447998047	1036.744506835938	43.31485748291016	266.5523986816406	963.9090576171875	48.11949920654297	297.3365783691406	949.7633666992188	35.8880615234375	191.1511993408203	758.6202392578125	37.95802688598633	255.1630859375	836.8555908203125	505.6105346679688	458.030517578125	839.90234375	796.4053344726562	474.1907958984375	540.1448364257812	120.3949127197266	449.5936889648438	775.9075317382812	369.2840270996094	452.3977661132812	747.549560546875	58.18376922607422	432.7477416992188	692.3510131835938	73.96675109863281	383.7735595703125	657.7818603515625	74.59072875976562	481.8038024902344	495.1656494140625	135.9911193847656	387.2045288085938	
